<?xml version="1.0" encoding="UTF-8"?>
<!DOCTYPE svg PUBLIC "-//W3C//DTD SVG 1.1//EN" "http://www.w3.org/Graphics/SVG/1.1/DTD/svg11.dtd">
<!-- Creator: CorelDRAW 2017 -->
<svg xmlns="http://www.w3.org/2000/svg" xml:space="preserve" width="590px" height="714px" version="1.1" style="shape-rendering:geometricPrecision; text-rendering:geometricPrecision; image-rendering:optimizeQuality; fill-rule:evenodd; clip-rule:evenodd"
viewBox="0 0 590 714"
 xmlns:xlink="http://www.w3.org/1999/xlink"
 xmlns:dc="http://purl.org/dc/elements/1.1/"
 xmlns:cc="http://creativecommons.org/ns#"
 xmlns:rdf="http://www.w3.org/1999/02/22-rdf-syntax-ns#"
 xmlns:svg="http://www.w3.org/2000/svg"
 xmlns:sodipodi="http://sodipodi.sourceforge.net/DTD/sodipodi-0.dtd"
 xmlns:inkscape="http://www.inkscape.org/namespaces/inkscape"
 inkscape:version="0.92.2 (5c3e80d, 2017-08-06)"
 sodipodi:docname="palomitas.svg">
 <defs>
  <style type="text/css">
   <![CDATA[
    .fil0 {fill:black}
   ]]>
  </style>
 </defs>
 <g id="Capa_x0020_1">
  <metadata id="CorelCorpID_0Corel-Layer"/>
  <sodipodi:namedview id="base" pagecolor="#ffffff" bordercolor="#666666" borderopacity="1.0" inkscape:pageopacity="0.0" inkscape:pageshadow="2" inkscape:zoom="0.35" inkscape:cx="-127.14286" inkscape:cy="560" inkscape:document-units="mm" inkscape:current-layer="layer1" showgrid="false" inkscape:window-width="1920" inkscape:window-height="1017" inkscape:window-x="-8" inkscape:window-y="-8" inkscape:window-maximized="1"/>
  <g id="_3011212554912">
   <path class="fil0" d="M333.02 594.9l-0.49 87.46 -71.88 0 -2.39 -121.9 -0.73 3.77 78.13 0 0.88 -3.66 -3.52 34.33zm-40.85 -587.58l14.14 0c14.94,2.95 19.21,15.58 34.05,18.34 16.53,3.07 30.05,-16.38 64.42,-6.67 25.39,7.17 25.23,26.94 50.28,26.5 25.88,-0.45 37.92,-6.07 58.58,15.29 16.25,16.81 7.95,37.03 28.14,52.93 20.46,16.11 28.88,16.27 35.85,45.84 7.7,32.68 -3.49,38.3 -12.34,64.96 -5.62,16.94 -41.75,329.68 -45.89,363.45 -3.75,30.62 1.7,113.32 -33.71,122.52l-168.78 0 -189.75 0c-58.1,-3.88 -40.83,-21.5 -49.2,-89.2 -11.92,-96.43 -23.74,-192.86 -35.73,-289.28 -3.11,-25.07 -6.77,-50.21 -9.04,-75.34 -3.18,-35.13 -11.72,-36.94 -18.02,-63.64 -15.46,-65.51 38.42,-62.31 51.99,-107.33 20.01,-66.45 63.57,-22.63 96.92,-52.47 18.54,-16.58 39.32,-21.05 63.25,-13.61 36.49,11.34 20.58,0.94 52.07,-9.17 4.81,-1.54 9.02,-2.54 12.77,-3.12zm-78.39 459.4c-16.95,-94.63 144.36,-137.87 164.55,-20.54 17.09,99.35 -143.78,136.53 -164.55,20.54zm36.17 -203.18l-1.8 -34.33 96.88 0 -4.18 127.85c-25.11,-13.5 -63.4,-13.5 -88.77,0.01l-2.13 -93.53zm229.93 418.87l-41.28 -0.05 36.61 -453.24 60.46 0.09 -55.79 453.2zm-68.65 -0.01l-53.7 -0.04c-0.02,-22.86 1.92,-114.24 5.96,-131.56 5.89,-25.28 43.57,-36.37 43.56,-93.46 -0.01,-51.47 -40.29,-78.26 -39.74,-96.07 1.25,-40.11 5.99,-92.53 5.85,-132.06l74.22 0 -36.15 453.19zm-265.91 -453.22l74.71 0.03c-0.14,39.53 4.6,91.95 5.84,132.06 0.56,17.81 -39.72,44.6 -39.73,96.07 -0.01,55.81 37.34,69.58 43.56,93.46 3.6,13.83 5.98,111.27 5.95,131.56l-53.12 0 -37.21 -453.18zm-88.21 0.08l59.79 -0.05 37.65 453.14 -40.78 0.01 -56.66 -453.1zm443.11 -105.24c20.37,17.71 74.57,18.1 43.76,79.12l-494.76 1.06c-19.63,-33.5 -5.15,-54.19 21.81,-71.54 12.83,9.65 29.12,29.59 50.22,19.69 35.39,-16.6 -19.96,-29.05 -25.55,-33.2 -7.06,-18.1 -7.13,-36.59 12.62,-45.69 26.77,-12.33 26.95,8.63 49.14,8.84 16.18,-9.95 13.53,-32.14 41.49,-36.96 38.79,-6.68 34.27,17.05 57.49,17.73 16.5,-10.89 10.7,-27.9 38.6,-27.97 28.75,-0.06 20.96,19.44 38.58,31.09 19.05,-0.55 44.23,-43.41 79.94,-11.54 20.61,18.39 -14.43,58.26 19.97,80.52 19.29,12.48 26.85,-3.31 15.73,-22.57 -22.16,-38.34 25.07,-53.44 45.05,-32.67 15.27,15.88 1.55,30.25 5.91,44.09z"/>
   <path class="fil0" d="M225.65 122.32c24.37,-16.93 29.39,0.49 44.59,10.09 20.83,-2.25 26,-22.41 48.73,-8.53 23.16,14.14 2.59,31.81 28.97,39.79 34.09,-21.79 -8.47,-66.47 -38.54,-70.96 -13.64,-2.03 -15.4,1.03 -27.75,4.66 -14.32,4.21 -5.48,1.13 -20.8,-5.69 -17.25,-7.67 -39.03,-2.24 -52.57,10.14 -26.06,23.83 -15.22,73 19.44,82.48 27.86,7.62 40.97,-15.32 17.5,-23.91 -17.83,-6.51 -36.58,-13.53 -19.57,-38.07z"/>
  </g>
 </g>
</svg>
